#!OML:ASF H:\BabyWalks\Project 1\Capture day 1\Session 1\baby.ASF
:FULLY-SPECIFIED
:DEGREES
336
root -7.62772 17.3276 -1.58269 331.427 78.8746 330.103
lowerback 23.1228 2.39895 0.986616
upperback 7.22632 3.84055 0.628512
thorax -4.92448 2.06939 -0.922945
lowerneck -3.14806 1.82057 7.76688
upperneck 2.23724 2.22923 -4.66205
head 1.42066 1.10837 -2.81575
rclavicle 1.07344e-014 1.82882e-014
rhumerus -49.2072 18.6206 -87.9337
rradius 65.2153
rwrist -12.9283
rhand -13.9655 -18.6324
rfingers 7.12502
rthumb 12.1624 -48.2589
lclavicle 1.07344e-014 1.82882e-014
lhumerus -59.5264 -14.8818 80.3262
lradius 47.5238
lwrist -2.39666
lhand 2.65094 3.10487
lfingers 7.12502
lthumb 28.127 31.0154
rfemur -11.0963 10.3984 25.2043
rtibia 39.2945
rfoot -21.5749 10.7906
rtoes -1.83359
lfemur -29.794 0.910448 -7.83653
ltibia 33.2942
lfoot -11.0347 -9.57076
ltoes -2.36388
337
root -7.52303 17.3117 -1.60083 332.521 78.7763 331.193
lowerback 23.1802 2.39664 0.482621
upperback 7.24753 3.71311 0.439765
thorax -4.9496 2.00721 -0.808855
lowerneck -3.11129 1.90009 7.63461
upperneck 2.06336 2.3294 -4.24673
head 1.3535 1.16222 -2.64673
rclavicle 2.48481e-014 2.78299e-014
rhumerus -49.2116 18.4493 -88.074
rradius 64.6586
rwrist -12.5261
rhand -14.3957 -18.9653
rfingers 7.12502
rthumb 11.7475 -48.6159
lclavicle 2.48481e-014 2.78299e-014
lhumerus -58.6689 -14.8639 80.0229
lradius 47.2044
lwrist -2.69029
lhand 2.35777 2.95463
lfingers 7.12502
lthumb 27.8467 30.9109
rfemur -11.9001 9.98785 24.8901
rtibia 41.3251
rfoot -21.0895 11.5134
rtoes -2.47429
lfemur -29.9111 1.30055 -8.15184
ltibia 34.0896
lfoot -10.71 -9.94405
ltoes -1.1993
338
root -7.42151 17.2981 -1.61821 333.724 78.7356 332.354
lowerback 23.2232 2.38898 -0.0218861
upperback 7.26398 3.57729 0.235984
thorax -4.97002 1.94119 -0.707476
lowerneck -3.09314 1.96006 7.46989
upperneck 1.89727 2.40455 -3.81226
head 1.28932 1.2034 -2.46726
rclavicle 2.98177e-014 -1.31198e-014
rhumerus -49.2065 18.271 -88.2254
rradius 64.0351
rwrist -12.0828
rhand -14.9632 -19.3428
rfingers 7.12502
rthumb 11.2003 -49.0238
lclavicle 2.98177e-014 -1.31198e-014
lhumerus -57.6982 -14.9042 79.6841
lradius 46.8983
lwrist -3.03863
lhand 2.07495 2.81278
lfingers 7.12502
lthumb 27.5763 30.8125
rfemur -12.839 9.51753 24.5009
rtibia 43.4459
rfoot -20.4138 12.2222
rtoes -3.2617
lfemur -30.0532 1.69802 -8.54008
ltibia 34.8435
lfoot -10.5736 -10.3355
ltoes -0.121772
339
root -7.32256 17.287 -1.6354 334.951 78.7299 333.51
lowerback 23.2523 2.37459 -0.495052
upperback 7.28072 3.43958 0.0250621
thorax -4.97926 1.87475 -0.630064
lowerneck -3.08008 2.00022 7.2863
upperneck 1.72616 2.45527 -3.383
head 1.22262 1.23191 -2.28816
rclavicle -1.68967e-014 1.78906e-014
rhumerus -49.19 18.0991 -88.3876
rradius 63.3474
rwrist -11.5902
rhand -15.6354 -19.7418
rfingers 7.12502
rthumb 10.5519 -49.4569
lclavicle -1.68967e-014 1.78906e-014
lhumerus -56.6249 -14.9951 79.3079
lradius 46.6305
lwrist -3.41946
lhand 1.79479 2.69145
lfingers 7.12502
lthumb 27.3083 30.7337
rfemur -13.8566 9.01069 24.068
rtibia 45.5729
rfoot -19.5639 12.8855
rtoes -4.16605
lfemur -30.1999 2.08978 -8.96395
ltibia 35.5396
lfoot -10.5272 -10.7077
ltoes 1.07025
340
root -7.22617 17.2783 -1.65257 336.145 78.7507 334.617
lowerback 23.2795 2.35064 -0.918415
upperback 7.29832 3.30107 -0.189015
thorax -4.98229 1.80841 -0.583786
lowerneck -3.06037 2.02326 7.09712
upperneck 1.53966 2.48577 -2.97744
head 1.14914 1.24964 -2.11795
rclavicle 1.78906e-014 -1.66979e-014
rhumerus -49.1594 17.9333 -88.558
rradius 62.6076
rwrist -11.0611
rhand -16.333 -20.1678
rfingers 7.12502
rthumb 9.87889 -49.916
lclavicle 1.78906e-014 -1.66979e-014
lhumerus -55.4659 -15.1171 78.8873
lradius 46.4261
lwrist -3.83099
lhand 1.50503 2.59667
lfingers 7.12502
lthumb 27.0311 30.6822
rfemur -14.9001 8.49044 23.6144
rtibia 47.6266
rfoot -18.589 13.4541
rtoes -5.18625
lfemur -30.3331 2.46989 -9.40329
ltibia 36.1686
lfoot -10.5945 -11.0575
ltoes 2.18802
341
root -7.13242 17.2718 -1.66988 337.294 78.7916 335.678
lowerback 23.3232 2.31721 -1.29287
upperback 7.32116 3.16224 -0.401778
thorax -4.98442 1.74254 -0.564266
lowerneck -3.03659 2.03458 6.90679
upperneck 1.33804 2.50304 -2.60717
head 1.07039 1.25989 -1.96086
rclavicle -3.89618e-014 3.73715e-014
rhumerus -49.1112 17.7833 -88.7314
rradius 61.8345
rwrist -10.5057
rhand -17.0121 -20.5984
rfingers 7.12502
rthumb 9.2237 -50.3767
lclavicle -3.89618e-014 3.73715e-014
lhumerus -54.2406 -15.2464 78.4242
lradius 46.3185
lwrist -4.25322
lhand 1.19167 2.54154
lfingers 7.12502
lthumb 26.7313 30.6733
rfemur -15.9204 7.98013 23.1527
rtibia 49.5435
rfoot -17.5763 13.8874
rtoes -6.24447
lfemur -30.429 2.82021 -9.84541
ltibia 36.7213
lfoot -10.7963 -11.3687
ltoes 2.95907
342
root -7.0411 17.2678 -1.68735 338.475 78.8508 336.773
lowerback 23.3806 2.27966 -1.63629
upperback 7.3477 3.02558 -0.614449
thorax -4.98705 1.67823 -0.563295
lowerneck -3.00735 2.03652 6.72975
upperneck 1.13018 2.50975 -2.28531
head 0.989776 1.26402 -1.8235
rclavicle -3.85642e-014 2.70347e-014
rhumerus -49.053 17.6468 -88.9059
rradius 61.0405
rwrist -9.91912
rhand -17.6239 -21.0076
rfingers 7.12502
rthumb 8.63325 -50.8111
lclavicle -3.85642e-014 2.70347e-014
lhumerus -52.9703 -15.3607 77.9194
lradius 46.3295
lwrist -4.67193
lhand 0.81215 2.53885
lfingers 7.12502
lthumb 26.368 30.7255
rfemur -16.8941 7.49489 22.6784
rtibia 51.2788
rfoot -16.6537 14.18
rtoes -7.39031
lfemur -30.4777 3.13097 -10.2969
ltibia 37.1853
lfoot -11.0825 -11.6037
ltoes 3.41295
343
root -6.9524 17.2665 -1.70461 339.733 78.9304 337.947
lowerback 23.459 2.23782 -1.97094
upperback 7.37346 2.88544 -0.823303
thorax -5.00009 1.61254 -0.563166
lowerneck -2.9829 2.03669 6.5668
upperneck 0.934389 2.51498 -2.01634
head 0.915442 1.26679 -1.70681
rclavicle -2.06736e-014 -7.95139e-016
rhumerus -48.9958 17.5402 -89.0795
rradius 60.2428
rwrist -9.30121
rhand -18.1266 -21.3698
rfingers 7.12502
rthumb 8.14813 -51.1927
lclavicle -2.06736e-014 -7.95139e-016
lhumerus -51.6896 -15.4362 77.3846
lradius 46.4842
lwrist -5.05018
lhand 0.324563 2.58695
lfingers 7.12502
lthumb 25.9012 30.8427
rfemur -17.8144 7.04661 22.1914
rtibia 52.802
rfoot -15.9118 14.3443
rtoes -8.55899
lfemur -30.4758 3.39711 -10.7639
ltibia 37.5504
lfoot -11.3975 -11.7565
ltoes 3.67213
344
root -6.86609 17.2693 -1.72127 341.088 79.0351 339.213
lowerback 23.5556 2.19115 -2.31026
upperback 7.39358 2.7376 -1.0244
thorax -5.02807 1.54322 -0.550782
lowerneck -2.97403 2.03921 6.41632
upperneck 0.769849 2.52297 -1.79841
head 0.855325 1.27063 -1.60938
rclavicle 1.39149e-014 -3.02153e-014
rhumerus -48.9552 17.4731 -89.2477
rradius 59.4691
rwrist -8.67354
rhand -18.476 -21.6744
rfingers 7.12502
rthumb 7.81095 -51.5101
lclavicle 1.39149e-014 -3.02153e-014
lhumerus -50.43 -15.4608 76.8369
lradius 46.7983
lwrist -5.35706
lhand -0.315803 2.68017
lfingers 7.12502
lthumb 25.2879 31.024
rfemur -18.6974 6.64393 21.6914
rtibia 54.0937
rfoot -15.3839 14.413
rtoes -9.63183
lfemur -30.4267 3.60382 -11.2476
ltibia 37.8113
lfoot -11.7489 -11.8301
ltoes 3.64962
345
root -6.7823 17.276 -1.73695 342.473 79.1631 340.496
lowerback 23.6673 2.13563 -2.64985
upperback 7.40388 2.57761 -1.20895
thorax -5.07413 1.46797 -0.517807
lowerneck -2.98348 2.04757 6.26749
upperneck 0.644371 2.53804 -1.62298
head 0.812008 1.27796 -1.52614
rclavicle -1.74931e-014 7.95139e-015
rhumerus -48.9453 17.4573 -89.4061
rradius 58.7469
rwrist -8.06363
rhand -18.6345 -21.9239
rfingers 7.12502
rthumb 7.65799 -51.7652
lclavicle -1.74931e-014 7.95139e-015
lhumerus -49.2231 -15.4309 76.2969
lradius 47.2946
lwrist -5.55182
lhand -1.1422 2.83325
lfingers 7.12502
lthumb 24.4959 31.2867
rfemur -19.5494 6.2811 21.2022
rtibia 55.1391
rfoot -15.0936 14.3965
rtoes -10.5855
lfemur -30.3493 3.74471 -11.7286
ltibia 37.9723
lfoot -12.1099 -11.8373
ltoes 3.41734
346
root -6.70106 17.2856 -1.75107 343.781 79.317 341.682
lowerback 23.796 2.06867 -2.97449
upperback 7.39864 2.40507 -1.36892
thorax -5.14509 1.38648 -0.464146
lowerneck -3.00375 2.05923 6.12249
upperneck 0.556197 2.55695 -1.48852
head 0.783374 1.28721 -1.45691
rclavicle 1.63003e-014 -1.43125e-014
rhumerus -48.9895 17.4948 -89.5594
rradius 58.0809
rwrist -7.43874
rhand -18.6409 -22.0593
rfingers 7.12502
rthumb 7.65179 -51.9009
lclavicle 1.63003e-014 -1.43125e-014
lhumerus -48.0965 -15.3602 75.7852
lradius 47.981
lwrist -5.59175
lhand -2.16369 3.05765
lfingers 7.12502
lthumb 23.5164 31.6402
rfemur -20.3657 5.94354 20.7539
rtibia 55.9266
rfoot -15.0492 14.3024
rtoes -11.508
lfemur -30.2621 3.80811 -12.1807
ltibia 38.0461
lfoot -12.4407 -11.7897
ltoes 3.12903
347
root -6.62238 17.2983 -1.76347 344.822 79.4901 342.574
lowerback 23.9399 1.98567 -3.24942
upperback 7.37699 2.22212 -1.49347
thorax -5.24044 1.29977 -0.398058
lowerneck -3.02686 2.07312 5.97964
upperneck 0.495521 2.57869 -1.38958
head 0.764712 1.29785 -1.39958
rclavicle -1.03368e-014 1.51076e-014
rhumerus -49.0996 17.5862 -89.7065
rradius 57.4906
rwrist -6.81391
rhand -18.4827 -22.0851
rfingers 7.12502
rthumb 7.80443 -51.9211
lclavicle -1.03368e-014 1.51076e-014
lhumerus -47.0738 -15.2657 75.3173
lradius 48.8715
lwrist -5.46251
lhand -3.36493 3.35804
lfingers 7.12502
lthumb 22.3637 32.0836
rfemur -21.1541 5.62717 20.3891
rtibia 56.4474
rfoot -15.194 14.1486
rtoes -12.385
lfemur -30.1808 3.78744 -12.5604
ltibia 38.0535
lfoot -12.7385 -11.6876
ltoes 2.79673
348
root -6.54611 17.3139 -1.77379 345.427 79.6813 343.001
lowerback 24.1005 1.88479 -3.44108
upperback 7.3367 2.03401 -1.57874
thorax -5.36286 1.21034 -0.33571
lowerneck -3.04309 2.08503 5.84529
upperneck 0.451796 2.59806 -1.32043
head 0.750815 1.30721 -1.3535
rclavicle -7.55382e-015 -1.66979e-014
rhumerus -49.286 17.7119 -89.8493
rradius 56.984
rwrist -6.20213
rhand -18.1817 -21.9805
rfingers 7.12502
rthumb 8.09495 -51.8055
lclavicle -7.55382e-015 -1.66979e-014
lhumerus -46.1665 -15.174 74.9009
lradius 49.9593
lwrist -5.17826
lhand -4.72165 3.71862
lfingers 7.12502
lthumb 21.0608 32.5949
rfemur -21.9097 5.32215 20.1421
rtibia 56.6969
rfoot -15.4634 13.94
rtoes -13.2266
lfemur -30.1187 3.67852 -12.8326
ltibia 38.0165
lfoot -13.0021 -11.5375
ltoes 2.46045
349
root -6.47177 17.3319 -1.78208 345.468 79.8815 342.84
lowerback 24.2717 1.76646 -3.5303
upperback 7.28672 1.84753 -1.6192
thorax -5.49992 1.12142 -0.283211
lowerneck -3.04842 2.09343 5.71848
upperneck 0.410086 2.61333 -1.27815
head 0.736181 1.31427 -1.3176
rclavicle 2.18663e-014 8.74653e-015
rhumerus -49.5444 17.8698 -89.9851
rradius 56.5714
rwrist -5.62623
rhand -17.7746 -21.7595
rfingers 7.12502
rthumb 8.48786 -51.5689
lclavicle 2.18663e-014 8.74653e-015
lhumerus -45.3763 -15.0954 74.542
lradius 51.2374
lwrist -4.75512
lhand -6.19811 4.10981
lfingers 7.12502
lthumb 19.6419 33.1375
rfemur -22.6176 5.02287 20.0351
rtibia 56.6758
rfoot -15.7738 13.6929
rtoes -13.9724
lfemur -30.0738 3.47563 -12.9705
ltibia 37.9509
lfoot -13.2294 -11.3402
ltoes 2.17116
